<?xml version="1.0" standalone="no"?><!DOCTYPE svg PUBLIC "-//W3C//DTD SVG 1.1//EN" "http://www.w3.org/Graphics/SVG/1.1/DTD/svg11.dtd"><svg id="Layer_1" viewBox="0 0 223 83.75" version="1.1" xmlns="http://www.w3.org/2000/svg" xmlns:xlink="http://www.w3.org/1999/xlink">
<path class="cls-1 rc-header__logo-text" d="M98,74.8h-6l0,0c-0.2,0-0.3-0.2-0.3-0.3V56.4c0.1-0.3,0.1-0.7,0-1c-0.3-1.7-1.9-2.8-3.6-2.6  c-1.7,0.3-2.8,1.9-2.6,3.6v22.6c0,0.9,0.7,1.7,1.7,1.8H98c0.1,0,0.2,0,0.3,0c1.6-0.1,2.8-1.5,2.7-3.1C101,75.8,99.7,74.7,98,74.8z   M76.3,54.3l-16,21.6c-0.4,0.5-0.6,1.1-0.6,1.8c0,0.9,0.4,1.9,1.3,2.4c1.4,0.9,3.1,0.6,4.1-0.6l3.1-4.2h7.5v2.4  c0.1,1.7,1.5,3,3.1,2.9l0,0c1.7,0,2.9-1.4,2.9-2.9V56.3c0-0.9-0.4-1.8-1-2.3C79.4,52.8,77.4,52.9,76.3,54.3z M75.6,69.2h-2.8  c-0.1,0-0.2-0.1-0.2-0.2V69l3-4.1C75.6,64.8,75.6,69.2,75.6,69.2z M67.5,56.4c0-1.6-1.3-2.9-2.8-2.9c-0.8,0-1.6,0.3-2.1,0.8  l-6.8,7.1c-0.1,0.1-0.2,0.1-0.3,0.1s-0.2,0-0.2-0.1l-6.8-7.1c-0.5-0.5-1.3-0.9-2.1-0.9c-1.6,0-2.8,1.3-2.8,2.8c0,0.7,0.3,1.5,0.7,2  l8.3,9.5l0.1,10c0,1.6,1.3,2.9,2.9,2.9c1.6,0,2.9-1.3,2.9-2.9l0.2-9.9l8.1-9.5C67.3,57.7,67.5,57,67.5,56.4z M32.4,53.4  c-7.5,0-13.6,6.1-13.6,13.6s6.1,13.6,13.6,13.6S46,74.4,46,66.9C46,59.6,39.9,53.5,32.4,53.4z M32.4,74.2c-4.1,0-7.3-3.2-7.3-7.3  s3.2-7.3,7.3-7.3s7.3,3.2,7.3,7.3C39.7,71,36.5,74.2,32.4,74.2z M175.9,52.8c-1.5,0.1-2.7,1.3-2.7,2.7v12.7c0,0.1-0.1,0.2-0.2,0.2  c-0.1,0-0.1,0-0.1-0.1l-7.4-13.1c-1.1-2-3.7-2.6-5.6-1.4c-1.1,0.7-1.9,2-2,3.3v20.8c0.1,1.7,1.6,2.9,3.1,2.8s2.7-1.3,2.8-2.8V65.2  c0-0.1,0.1-0.2,0.2-0.2s0.1,0,0.1,0.1l7.6,13.4c1,1.9,3.4,2.5,5.3,1.5c1.3-0.7,2-2,2-3.3V55.6C178.9,54,177.6,52.7,175.9,52.8z   M14,69.5c2.4-1.5,4-4.1,3.9-6.9c0,0,0,0,0-0.1c0.1-4.9-3.9-9-8.8-9.1c-2.4-0.2-4.9,0.6-6.6,2.3C0.6,57.6,0,60,0,62.6l0.4,15.1  c0,1.6,1.3,2.9,2.9,2.9s2.9-1.3,2.9-2.9l0.1-7.2l0,0c0-0.2,0.1-0.3,0.3-0.3c0,0,0.1,0,0.2,0l7.1,9.7c0.5,0.5,1.1,0.7,1.9,0.7  c1.6,0,2.8-1.3,2.9-2.8c0-0.4-0.1-0.8-0.3-1.3L14,69.5z M8.9,65.3c-0.2,0-0.3,0-0.5,0c-1.7-0.1-2.8-1.6-2.7-3.1  c0.1-1.7,1.6-2.8,3.1-2.7c0.2,0,0.3,0,0.5,0c1.7,0.1,2.8,1.6,2.7,3.1C11.9,64.2,10.4,65.7,8.9,65.3z M129.8,71.5  c-0.4,0-0.9,0.1-1.4,0.3l-2.4,1.6c-1.1,0.7-2.5,1.1-3.9,1.1c-4.2-0.2-7.3-3.8-7.1-7.8c0.2-3.9,3.2-6.9,7.1-7.1  c1.4,0,2.7,0.4,3.9,1.1l2.3,1.6c0.4,0.2,0.8,0.3,1.4,0.3c1.6,0,2.9-1.3,2.9-2.9l0,0c0-0.6-0.2-1.4-0.7-1.9c-2.3-2.7-5.7-4.3-9.4-4.3  c-7.5,0-13.6,6.1-13.6,13.6l0,0c0,7.2,5.6,13.2,12.8,13.6c3.9,0,7.5-1.6,10.2-4.4c0.4-0.5,0.7-1.1,0.6-1.9  C132.8,72.8,131.4,71.5,129.8,71.5z M185.4,52.7c-1.8,0-3.1,1.5-3.1,3.1v21.9c0,1.8,1.5,3.1,3.1,3.1c1.8,0,3.1-1.5,3.1-3.1V55.8  C188.5,54.1,187.2,52.7,185.4,52.7z M139.9,54.2c-0.6-0.6-1.5-1-2.4-1c-1.8,0-3.1,0.8-3.1,2.6v21.9l0,0c0,1.7,1.4,2.9,3,2.9  s3-1.3,3.1-2.9v-2.4h7.5l3.1,4.2c0.5,0.7,1.5,1.1,2.4,1.1c1.7,0,2.9-1.4,2.9-2.9c0-0.6-0.2-1.3-0.6-1.8L139.9,54.2z M143.5,69  c0,0.1-0.1,0.2-0.2,0.2h-2.8v-4.5l3,4.2C143.6,68.9,143.6,68.9,143.5,69z M209.9,52.8c-1.5,0.1-2.7,1.3-2.7,2.7v12.7  c0,0.1-0.1,0.2-0.2,0.2c-0.1,0-0.1,0-0.2-0.1l-7.3-13.1c-1.1-2-3.7-2.6-5.6-1.4c-1.1,0.7-1.9,2-2,3.3v20.8c0,1.7,1.4,3,3,3  s3-1.4,3-3V65.2c0-0.1,0.1-0.2,0.2-0.2s0.1,0,0.1,0.1l7.6,13.4c1,1.9,3.4,2.5,5.3,1.5c1.3-0.7,2-2,2-3.3V55.6  C212.9,54,211.5,52.7,209.9,52.8z M220.7,55.3c0-0.1,0-0.1,0-0.2c0-0.8-0.6-1-1.3-1h-0.9c-0.3,0-0.4,0.2-0.4,0.3v2.7  c0,0.3,0.1,0.4,0.4,0.4s0.4-0.2,0.4-0.4v-1h0.2l0.5,1c0.1,0.2,0.2,0.4,0.5,0.4s0.4-0.1,0.4-0.3c0-0.1,0-0.1,0-0.2l-0.6-0.9  C220.3,56.2,220.7,55.7,220.7,55.3z M219.5,55.5h-0.6v-0.8h0.6c0.3,0,0.5,0.1,0.5,0.4S219.8,55.5,219.5,55.5z M219.4,52.6  L219.4,52.6c-1.8,0-3.2,1.5-3.2,3.2s1.5,3.2,3.2,3.2s3.2-1.5,3.2-3.2C222.5,54.1,221.1,52.6,219.4,52.6z M219.4,58.2L219.4,58.2  c-1.4,0-2.4-1-2.4-2.4s1-2.4,2.4-2.4s2.4,1,2.4,2.4C221.8,57.1,220.7,58.2,219.4,58.2z" style="block-size:auto;border-block-end-color:rgb(70, 0, 173);border-block-start-color:rgb(70, 0, 173);border-bottom-color:rgb(70, 0, 173);border-inline-end-color:rgb(70, 0, 173);border-inline-start-color:rgb(70, 0, 173);border-left-color:rgb(70, 0, 173);border-right-color:rgb(70, 0, 173);border-top-color:rgb(70, 0, 173);caret-color:rgb(70, 0, 173);color:rgb(70, 0, 173);column-rule-color:rgb(70, 0, 173);cursor:pointer;d:path(&quot;M 98 74.8 H 92 L 92 74.8 C 91.8 74.8 91.7 74.6 91.7 74.5 V 56.4 C 91.8 56.1 91.8 55.7 91.7 55.4 C 91.4 53.7 89.8 52.6 88.1 52.8 C 86.4 53.1 85.3 54.7 85.5 56.4 V 79 C 85.5 79.9 86.2 80.7 87.2 80.8 H 98 C 98.1 80.8 98.2 80.8 98.3 80.8 C 99.9 80.7 101.1 79.3 101 77.7 C 101 75.8 99.7 74.7 98 74.8 Z M 76.3 54.3 L 60.3 75.9 C 59.9 76.4 59.7 77 59.7 77.7 C 59.7 78.6 60.1 79.6 61 80.1 C 62.4 81 64.1 80.7 65.1 79.5 L 68.2 75.3 H 75.7 V 77.7 C 75.8 79.4 77.2 80.7 78.8 80.6 L 78.8 80.6 C 80.5 80.6 81.7 79.2 81.7 77.7 V 56.3 C 81.7 55.4 81.3 54.5 80.7 54 C 79.4 52.8 77.4 52.9 76.3 54.3 Z M 75.6 69.2 H 72.8 C 72.7 69.2 72.6 69.1 72.6 69 V 69 L 75.6 64.9 C 75.6 64.8 75.6 69.2 75.6 69.2 Z M 67.5 56.4 C 67.5 54.8 66.2 53.5 64.7 53.5 C 63.9 53.5 63.1 53.8 62.6 54.3 L 55.8 61.4 C 55.7 61.5 55.6 61.5 55.5 61.5 S 55.3 61.5 55.3 61.4 L 48.5 54.3 C 48 53.8 47.2 53.4 46.4 53.4 C 44.8 53.4 43.6 54.7 43.6 56.2 C 43.6 56.9 43.9 57.7 44.3 58.2 L 52.6 67.7 L 52.7 77.7 C 52.7 79.3 54 80.6 55.6 80.6 C 57.2 80.6 58.5 79.3 58.5 77.7 L 58.7 67.8 L 66.8 58.3 C 67.3 57.7 67.5 57 67.5 56.4 Z M 32.4 53.4 C 24.9 53.4 18.8 59.5 18.8 67 S 24.9 80.6 32.4 80.6 S 46 74.4 46 66.9 C 46 59.6 39.9 53.5 32.4 53.4 Z M 32.4 74.2 C 28.3 74.2 25.1 71 25.1 66.9 S 28.3 59.6 32.4 59.6 S 39.7 62.8 39.7 66.9 C 39.7 71 36.5 74.2 32.4 74.2 Z M 175.9 52.8 C 174.4 52.9 173.2 54.1 173.2 55.5 V 68.2 C 173.2 68.3 173.1 68.4 173 68.4 C 172.9 68.4 172.9 68.4 172.9 68.3 L 165.5 55.2 C 164.4 53.2 161.8 52.6 159.9 53.8 C 158.8 54.5 158 55.8 157.9 57.1 V 77.9 C 158 79.6 159.5 80.8 161 80.7 S 163.7 79.4 163.8 77.9 V 65.2 C 163.8 65.1 163.9 65 164 65 S 164.1 65 164.1 65.1 L 171.7 78.5 C 172.7 80.4 175.1 81 177 80 C 178.3 79.3 179 78 179 76.7 V 55.6 C 178.9 54 177.6 52.7 175.9 52.8 Z M 14 69.5 C 16.4 68 18 65.4 17.9 62.6 C 17.9 62.6 17.9 62.6 17.9 62.5 C 18 57.6 14 53.5 9.1 53.4 C 6.7 53.2 4.2 54 2.5 55.7 C 0.6 57.6 0 60 0 62.6 L 0.4 77.7 C 0.4 79.3 1.7 80.6 3.3 80.6 S 6.2 79.3 6.2 77.7 L 6.3 70.5 L 6.3 70.5 C 6.3 70.3 6.4 70.2 6.6 70.2 C 6.6 70.2 6.7 70.2 6.8 70.2 L 13.9 79.9 C 14.4 80.4 15 80.6 15.8 80.6 C 17.4 80.6 18.6 79.3 18.7 77.8 C 18.7 77.4 18.6 77 18.4 76.5 L 14 69.5 Z M 8.9 65.3 C 8.7 65.3 8.6 65.3 8.4 65.3 C 6.7 65.2 5.6 63.7 5.7 62.2 C 5.8 60.5 7.3 59.4 8.8 59.5 C 9 59.5 9.1 59.5 9.3 59.5 C 11 59.6 12.1 61.1 12 62.6 C 11.9 64.2 10.4 65.7 8.9 65.3 Z M 129.8 71.5 C 129.4 71.5 128.9 71.6 128.4 71.8 L 126 73.4 C 124.9 74.1 123.5 74.5 122.1 74.5 C 117.9 74.3 114.8 70.7 115 66.7 C 115.2 62.8 118.2 59.8 122.1 59.6 C 123.5 59.6 124.8 60 126 60.7 L 128.3 62.3 C 128.7 62.5 129.1 62.6 129.7 62.6 C 131.3 62.6 132.6 61.3 132.6 59.7 L 132.6 59.7 C 132.6 59.1 132.4 58.3 131.9 57.8 C 129.6 55.1 126.2 53.5 122.5 53.5 C 115 53.5 108.9 59.6 108.9 67.1 L 108.9 67.1 C 108.9 74.3 114.5 80.3 121.7 80.7 C 125.6 80.7 129.2 79.1 131.9 76.3 C 132.3 75.8 132.6 75.2 132.5 74.4 C 132.8 72.8 131.4 71.5 129.8 71.5 Z M 185.4 52.7 C 183.6 52.7 182.3 54.2 182.3 55.8 V 77.7 C 182.3 79.5 183.8 80.8 185.4 80.8 C 187.2 80.8 188.5 79.3 188.5 77.7 V 55.8 C 188.5 54.1 187.2 52.7 185.4 52.7 Z M 139.9 54.2 C 139.3 53.6 138.4 53.2 137.5 53.2 C 135.7 53.2 134.4 54 134.4 55.8 V 77.7 L 134.4 77.7 C 134.4 79.4 135.8 80.6 137.4 80.6 S 140.4 79.3 140.5 77.7 V 75.3 H 148 L 151.1 79.5 C 151.6 80.2 152.6 80.6 153.5 80.6 C 155.2 80.6 156.4 79.2 156.4 77.7 C 156.4 77.1 156.2 76.4 155.8 75.9 L 139.9 54.2 Z M 143.5 69 C 143.5 69.1 143.4 69.2 143.3 69.2 H 140.5 V 64.7 L 143.5 68.9 C 143.6 68.9 143.6 68.9 143.5 69 Z M 209.9 52.8 C 208.4 52.9 207.2 54.1 207.2 55.5 V 68.2 C 207.2 68.3 207.1 68.4 207 68.4 C 206.9 68.4 206.9 68.4 206.8 68.3 L 199.5 55.2 C 198.4 53.2 195.8 52.6 193.9 53.8 C 192.8 54.5 192 55.8 191.9 57.1 V 77.9 C 191.9 79.6 193.3 80.9 194.9 80.9 S 197.9 79.5 197.9 77.9 V 65.2 C 197.9 65.1 198 65 198.1 65 S 198.2 65 198.2 65.1 L 205.8 78.5 C 206.8 80.4 209.2 81 211.1 80 C 212.4 79.3 213.1 78 213.1 76.7 V 55.6 C 212.9 54 211.5 52.7 209.9 52.8 Z M 220.7 55.3 C 220.7 55.2 220.7 55.2 220.7 55.1 C 220.7 54.3 220.1 54.1 219.4 54.1 H 218.5 C 218.2 54.1 218.1 54.3 218.1 54.4 V 57.1 C 218.1 57.4 218.2 57.5 218.5 57.5 S 218.9 57.3 218.9 57.1 V 56.1 H 219.1 L 219.6 57.1 C 219.7 57.3 219.8 57.5 220.1 57.5 S 220.5 57.4 220.5 57.2 C 220.5 57.1 220.5 57.1 220.5 57 L 219.9 56.1 C 220.3 56.2 220.7 55.7 220.7 55.3 Z M 219.5 55.5 H 218.9 V 54.7 H 219.5 C 219.8 54.7 220 54.8 220 55.1 S 219.8 55.5 219.5 55.5 Z M 219.4 52.6 L 219.4 52.6 C 217.6 52.6 216.2 54.1 216.2 55.8 S 217.7 59 219.4 59 S 222.6 57.5 222.6 55.8 C 222.5 54.1 221.1 52.6 219.4 52.6 Z M 219.4 58.2 L 219.4 58.2 C 218 58.2 217 57.2 217 55.8 S 218 53.4 219.4 53.4 S 221.8 54.4 221.8 55.8 C 221.8 57.1 220.7 58.2 219.4 58.2 Z&quot;);fill:rgb(226, 0, 26);height:auto;inline-size:auto;outline-color:rgb(70, 0, 173);overflow-x:visible;overflow-y:visible;perspective-origin:0px 0px;text-align:center;text-decoration:none solid rgb(70, 0, 173);text-decoration-color:rgb(70, 0, 173);transform-origin:0px 0px;transition-duration:0.25s;transition-timing-function:cubic-bezier(0.81, 0.23, 0.23, 0.76);width:auto;-webkit-text-emphasis-color:rgb(70, 0, 173);-webkit-text-fill-color:rgb(70, 0, 173);-webkit-text-stroke-color:rgb(70, 0, 173);"/>
<path class="cls-1 rc-header__logo-crown" d="M132.7,38.8c-6.4-4.7-16-7.5-25.9-7.5s-19.6,2.8-25.9,7.5c-0.6,0.4-0.9,1.1-0.9,1.9c0,1.4,1,2.4,2.4,2.4l0,0  c0.5,0,1-0.2,1.5-0.5C88.2,39.4,96.5,36,107,36s18.7,3.4,23,6.6l0.1,0.1c1,0.7,2.6,0.5,3.3-0.6C134,41,133.8,39.5,132.7,38.8z   M106.8,37c-9.2,0-17.9,2.7-23.3,7.2c0,0,0,0-0.1,0c-0.6,0.6-0.7,1.6-0.2,2.3c0.3,0.4,0.7,0.6,1.3,0.6c0.4,0,0.7-0.1,1-0.4  c4.8-4,12.8-6.5,21.2-6.5s16.3,2.4,21.2,6.5c0.7,0.6,1.8,0.5,2.3-0.2c0.6-0.7,0.5-1.8-0.2-2.3C124.6,39.8,115.9,37,106.8,37z   M71.8,12.8L71.8,12.8L71.8,12.8L71.8,12.8z M77,19.7c0.7-2.9-1-5.8-4-6.7c-0.4-0.1-0.9-0.2-1.4-0.2c-3,0-5.4,2.4-5.4,5.4  s2.4,5.4,5.4,5.4C74.3,23.8,76.4,22.1,77,19.7z M106.8,28.1c3,0,5.4-2.4,5.4-5.4s-2.4-5.4-5.4-5.4s-5.4,2.4-5.4,5.4  S103.7,28.1,106.8,28.1z M106.8,14.3c3,0,5.4-2.4,5.4-5.4s-2.4-5.5-5.4-5.5s-5.4,2.4-5.4,5.4C101.3,11.9,103.7,14.3,106.8,14.3z   M90.8,19.2C87.9,20,86.2,23.1,87,26c0.6,2.3,2.8,3.9,5.2,4h0.1c0.4,0,0.9-0.1,1.4-0.2c2.9-0.8,4.6-3.8,3.9-6.7  C97,20.7,94.8,19,92.3,19C91.7,19,91.3,19.1,90.8,19.2z M84,31.5c0.7-2.9-1-6-4-6.7c-0.4-0.1-0.9-0.2-1.4-0.2l0,0  c-0.9,0-1.9,0.3-2.8,0.7c-1.3,0.7-2.2,2-2.5,3.3c-0.4,1.5-0.2,2.9,0.6,4.2c0.9,1.7,2.7,2.6,4.7,2.7c0.9,0,2-0.2,2.8-0.7  C82.7,34.1,83.7,32.9,84,31.5z M119.9,29.7c0.5,0.1,0.9,0.2,1.5,0.2c3,0,5.4-2.5,5.4-5.4c0-2.5-1.7-4.6-4-5.2  c-0.5-0.1-0.9-0.2-1.5-0.2c-3,0-5.4,2.5-5.4,5.5C115.8,26.9,117.5,29.1,119.9,29.7z M123.5,16.5c0.4,0.1,0.9,0.2,1.5,0.2  c3,0,5.4-2.5,5.4-5.4c0-2.5-1.7-4.6-4-5.2c-0.5-0.1-0.9-0.2-1.5-0.2c-3,0-5.4,2.5-5.4,5.5C119.5,13.6,121.2,15.8,123.5,16.5z   M137.7,25.4c-0.8-0.5-1.8-0.7-2.7-0.7c-3,0-5.4,2.4-5.4,5.4c0,0.4,0.1,0.9,0.2,1.4c0.3,1.4,1.3,2.6,2.5,3.3c2.6,1.6,6,0.6,7.5-2  c0.7-1.3,0.9-2.7,0.6-4.2C139.8,27.4,138.9,26.2,137.7,25.4z M147.2,17c-0.3-1.4-1.3-2.6-2.5-3.3c-2.6-1.6-6-0.6-7.5,2  c-0.7,1.3-0.9,2.7-0.6,4.2c0.3,1.4,1.3,2.6,2.5,3.3c2.6,1.6,6,0.7,7.5-1.9C147.4,19.9,147.6,18.2,147.2,17z M88.7,16.7L88.7,16.7  c0.5,0,1-0.1,1.5-0.2c2.9-0.8,4.6-3.9,3.9-6.7c-0.6-2.4-2.8-4-5.2-4c-0.5,0-0.9,0.1-1.5,0.2c-2.9,0.8-4.6,3.9-3.9,6.7  C84.1,15,86.2,16.7,88.7,16.7z" style="block-size:auto;border-block-end-color:rgb(70, 0, 173);border-block-start-color:rgb(70, 0, 173);border-bottom-color:rgb(70, 0, 173);border-inline-end-color:rgb(70, 0, 173);border-inline-start-color:rgb(70, 0, 173);border-left-color:rgb(70, 0, 173);border-right-color:rgb(70, 0, 173);border-top-color:rgb(70, 0, 173);caret-color:rgb(70, 0, 173);color:rgb(70, 0, 173);column-rule-color:rgb(70, 0, 173);cursor:pointer;d:path(&quot;M 132.7 38.8 C 126.3 34.1 116.7 31.3 106.8 31.3 S 87.2 34.1 80.9 38.8 C 80.3 39.2 80 39.9 80 40.7 C 80 42.1 81 43.1 82.4 43.1 L 82.4 43.1 C 82.9 43.1 83.4 42.9 83.9 42.6 C 88.2 39.4 96.5 36 107 36 S 125.7 39.4 130 42.6 L 130.1 42.7 C 131.1 43.4 132.7 43.2 133.4 42.1 C 134 41 133.8 39.5 132.7 38.8 Z M 106.8 37 C 97.6 37 88.9 39.7 83.5 44.2 C 83.5 44.2 83.5 44.2 83.4 44.2 C 82.8 44.8 82.7 45.8 83.2 46.5 C 83.5 46.9 83.9 47.1 84.5 47.1 C 84.9 47.1 85.2 47 85.5 46.7 C 90.3 42.7 98.3 40.2 106.7 40.2 S 123 42.6 127.9 46.7 C 128.6 47.3 129.7 47.2 130.2 46.5 C 130.8 45.8 130.7 44.7 130 44.2 C 124.6 39.8 115.9 37 106.8 37 Z M 71.8 12.8 L 71.8 12.8 L 71.8 12.8 L 71.8 12.8 Z M 77 19.7 C 77.7 16.8 76 13.9 73 13 C 72.6 12.9 72.1 12.8 71.6 12.8 C 68.6 12.8 66.2 15.2 66.2 18.2 S 68.6 23.6 71.6 23.6 C 74.3 23.8 76.4 22.1 77 19.7 Z M 106.8 28.1 C 109.8 28.1 112.2 25.7 112.2 22.7 S 109.8 17.3 106.8 17.3 S 101.4 19.7 101.4 22.7 S 103.7 28.1 106.8 28.1 Z M 106.8 14.3 C 109.8 14.3 112.2 11.9 112.2 8.9 S 109.8 3.4 106.8 3.4 S 101.4 5.8 101.4 8.8 C 101.3 11.9 103.7 14.3 106.8 14.3 Z M 90.8 19.2 C 87.9 20 86.2 23.1 87 26 C 87.6 28.3 89.8 29.9 92.2 30 H 92.3 C 92.7 30 93.2 29.9 93.7 29.8 C 96.6 29 98.3 26 97.6 23.1 C 97 20.7 94.8 19 92.3 19 C 91.7 19 91.3 19.1 90.8 19.2 Z M 84 31.5 C 84.7 28.6 83 25.5 80 24.8 C 79.6 24.7 79.1 24.6 78.6 24.6 L 78.6 24.6 C 77.7 24.6 76.7 24.9 75.8 25.3 C 74.5 26 73.6 27.3 73.3 28.6 C 72.9 30.1 73.1 31.5 73.9 32.8 C 74.8 34.5 76.6 35.4 78.6 35.5 C 79.5 35.5 80.6 35.3 81.4 34.8 C 82.7 34.1 83.7 32.9 84 31.5 Z M 119.9 29.7 C 120.4 29.8 120.8 29.9 121.4 29.9 C 124.4 29.9 126.8 27.4 126.8 24.5 C 126.8 22 125.1 19.9 122.8 19.3 C 122.3 19.2 121.9 19.1 121.3 19.1 C 118.3 19.1 115.9 21.6 115.9 24.6 C 115.8 26.9 117.5 29.1 119.9 29.7 Z M 123.5 16.5 C 123.9 16.6 124.4 16.7 125 16.7 C 128 16.7 130.4 14.2 130.4 11.3 C 130.4 8.8 128.7 6.7 126.4 6.1 C 125.9 6 125.5 5.9 124.9 5.9 C 121.9 5.9 119.5 8.4 119.5 11.4 C 119.5 13.6 121.2 15.8 123.5 16.5 Z M 137.7 25.4 C 136.9 24.9 135.9 24.7 135 24.7 C 132 24.7 129.6 27.1 129.6 30.1 C 129.6 30.5 129.7 31 129.8 31.5 C 130.1 32.9 131.1 34.1 132.3 34.8 C 134.9 36.4 138.3 35.4 139.8 32.8 C 140.5 31.5 140.7 30.1 140.4 28.6 C 139.8 27.4 138.9 26.2 137.7 25.4 Z M 147.2 17 C 146.9 15.6 145.9 14.4 144.7 13.7 C 142.1 12.1 138.7 13.1 137.2 15.7 C 136.5 17 136.3 18.4 136.6 19.9 C 136.9 21.3 137.9 22.5 139.1 23.2 C 141.7 24.8 145.1 23.9 146.6 21.3 C 147.4 19.9 147.6 18.2 147.2 17 Z M 88.7 16.7 L 88.7 16.7 C 89.2 16.7 89.7 16.6 90.2 16.5 C 93.1 15.7 94.8 12.6 94.1 9.8 C 93.5 7.4 91.3 5.8 88.9 5.8 C 88.4 5.8 88 5.9 87.4 6 C 84.5 6.8 82.8 9.9 83.5 12.7 C 84.1 15 86.2 16.7 88.7 16.7 Z&quot;);fill:rgb(226, 0, 26);height:auto;inline-size:auto;outline-color:rgb(70, 0, 173);overflow-x:visible;overflow-y:visible;perspective-origin:0px 0px;text-align:center;text-decoration:none solid rgb(70, 0, 173);text-decoration-color:rgb(70, 0, 173);transform-origin:40.6px 0px;transition-duration:0.25s;transition-timing-function:cubic-bezier(0.81, 0.23, 0.23, 0.76);width:auto;-webkit-text-emphasis-color:rgb(70, 0, 173);-webkit-text-fill-color:rgb(70, 0, 173);-webkit-text-stroke-color:rgb(70, 0, 173);"/>
</svg>