<svg
	xmlns:dc="http://purl.org/dc/elements/1.1/"
	xmlns:cc="http://creativecommons.org/ns#"
	xmlns:rdf="http://www.w3.org/1999/02/22-rdf-syntax-ns#"
	xmlns:svg="http://www.w3.org/2000/svg"
	xmlns="http://www.w3.org/2000/svg" viewBox="0 0 553.53333 95" height="95" width="553.53333" xml:space="preserve" id="svg2" version="1.1">
	<metadata id="metadata8">
		<rdf:RDF>
			<cc:Work rdf:about="">
				<dc:format>image/svg+xml</dc:format>
				<dc:type rdf:resource="http://purl.org/dc/dcmitype/StillImage"/>
			</cc:Work>
		</rdf:RDF>
	</metadata>
	<rect width="534" height="95" style="fill:rgb(255,255,255);stroke-width:0;stroke:rgb(0,0,0)" transform="translate(2,1)"/>
	<defs id="defs6"/>
	<g transform="matrix(1.3333333,0,0,-1.3333333,0,182.01333) translate(1,-2)" id="g10">
		<g transform="scale(0.1)" id="g12">
			<path id="path16" style="fill:#fff;fill-opacity:1;fill-rule:nonzero;stroke:none" d="m 4074.43,1326.77 h 4.37 c 5.13,0 9.31,1.71 9.31,5.85 0,3.65 -2.71,6.13 -8.59,6.13 -2.44,0 -4.14,-0.24 -5.09,-0.52 z m -0.26,-22.49 h -9.29 v 40.06 c 3.67,0.49 8.79,1.24 15.4,1.24 7.58,0 10.97,-1.24 13.69,-3.17 2.41,-1.73 4.11,-4.68 4.11,-8.58 0,-4.88 -3.63,-8.04 -8.29,-9.52 v -0.49 c 3.91,-1.22 5.86,-4.37 7.07,-9.74 1.22,-6.14 2.21,-8.31 2.94,-9.8 h -9.76 c -1.21,1.49 -1.93,4.88 -3.18,9.8 -0.71,4.15 -3.16,6.08 -8.29,6.08 h -4.4 z m -24.68,20.77 c 0,-17.8 13.43,-32 31.26,-32 17.33,-0.25 30.52,14.2 30.52,31.77 0,17.83 -13.19,32.22 -30.99,32.22 -17.36,0 -30.79,-14.39 -30.79,-31.99 z m 72.05,0 c 0,-22.47 -18.07,-40.3 -41.04,-40.3 -22.94,0 -41.26,17.83 -41.26,40.3 0,22.49 18.32,40.06 41.51,40.06 22.72,0 40.79,-17.57 40.79,-40.06"/>
			<path id="path18" style="fill:#231f20;fill-opacity:1;fill-rule:nonzero;stroke:none" d="M 3991.67,685.531 H 719.762 V 1360.25 H 3991.67 V 685.531"/>
			<path id="path20" style="fill:#ffffff;fill-opacity:1;fill-rule:nonzero;stroke:none" d="m 992.656,1204.54 c 14.364,3.33 26.354,5 35.654,5 16.69,0 31.58,-3.83 44.69,-11.46 12.84,-7.25 22.94,-18.7 29.99,-33.78 7.31,-15.61 10.92,-32.53 10.92,-50.62 0,-26.16 -7.51,-47.43 -22.32,-63.63 -15.04,-16.46 -32.41,-24.27 -52.91,-24.27 -5.78,0 -12.98,0.51 -21.43,1.58 -7.27,0.89 -15.62,2.16 -24.594,3.9 z m 123.804,31.11 c -23.16,8.26 -55.15,12.45 -94.73,12.45 H 854.723 v -24.37 h 22.879 c 14.761,0 25.511,-4.14 32.734,-12.24 2.672,-3.04 7.137,-13.41 7.137,-47.36 V 879.051 c 0,-30.957 -3.426,-41.004 -5.368,-44.223 -6.847,-10.25 -18.167,-15.215 -34.503,-15.215 h -22.879 v -24.566 h 200.567 v 24.566 h -22.93 c -14.8,0 -25.21,3.926 -32.14,12.102 -3.064,3.004 -7.564,13.269 -7.564,47.336 v 120.277 c 11.114,-2.148 21.964,-4.168 32.084,-5.301 12.81,-1.875 24.41,-2.476 35.06,-2.476 44.26,0 79.39,12.079 103.91,35.619 24.73,23.72 37.36,54.76 37.36,92.49 0,27.81 -8.28,52.36 -24.72,72.67 -16.16,20.15 -36.3,34.71 -59.89,43.32"/>
			<path id="path22" style="fill:#ffffff;fill-opacity:1;fill-rule:nonzero;stroke:none" d="m 1608.13,1251.03 v -24.77 h 22.65 c 14.69,0 25.25,-3.87 32.5,-12.03 2.83,-3.13 7.42,-13.8 7.42,-47.43 V 988.824 c 0,-45.648 -4.03,-78.172 -11.99,-97.094 -7.64,-17.871 -22.63,-33.164 -44.2,-44.89 -21.57,-12.012 -46.62,-18.059 -74.47,-18.059 -21.3,0 -39.54,3.75 -54.19,11.289 -14.54,7.422 -25.63,17.02 -33.2,28.348 -7.68,11.449 -13.21,27.863 -16.16,48.895 -2.98,21.57 -4.73,41.14 -4.73,57.839 V 1166.8 c 0,28.99 3.71,40.45 6.98,45.14 6.3,9.67 17.13,14.32 32.75,14.32 h 23.03 v 24.77 h -200.6 v -24.77 h 22.52 c 14.48,0 24.65,-3.46 30.68,-10.39 4.34,-4.98 9.39,-17.58 9.39,-49.07 V 994.922 c 0,-54.344 3.57,-90.406 10.93,-110.707 10.75,-29.129 29.34,-52.684 55.29,-70.059 25.86,-17.398 63.81,-26.261 112.81,-26.261 45.29,0 81.71,9.168 108.31,27.328 26.7,18.004 44.71,40.132 54.01,65.535 9.04,24.972 13.56,60.066 13.56,104.527 V 1163.6 c 0,30.55 3.56,40.47 5.73,43.65 8.15,12.97 19.38,19.01 34.15,19.01 h 22.82 v 24.77 h -165.99"/>
			<path id="path24" style="fill:#ffffff;fill-opacity:1;fill-rule:nonzero;stroke:none" d="m 2023.39,1205.38 c 18.29,3.47 33.25,5.42 44.13,5.42 26.06,0 47.33,-8.01 63,-23.88 16,-16.04 23.77,-36.61 23.77,-62.6 0,-26.21 -9.5,-47.47 -29.39,-64.52 -19.93,-17.01 -50.02,-25.6 -89.85,-25.6 -1.64,0 -10.01,0.14 -11.66,0.14 z m 251.28,-368.458 c -14.17,8.996 -31.67,28.144 -51.74,56.449 -0.2,0 -66.24,91.516 -85.88,118.589 33.75,8.87 59.43,22.75 76.41,42.03 18.4,20.85 27.97,46.03 27.97,74.56 0,26.81 -8.31,50.16 -24.66,69.53 -16.22,19.22 -36.17,32.5 -59.43,39.76 -22.77,6.89 -58.19,10.37 -105.41,10.37 h -166.51 v -24.33 h 22.84 c 14.57,0 25.25,-4.07 32.37,-12.27 2.78,-3.16 7.4,-13.38 7.4,-47.31 V 879.156 c 0,-31.062 -3.45,-40.847 -5.65,-44.152 -6.83,-10.305 -17.85,-15.391 -34.12,-15.391 h -22.84 v -24.566 h 200.51 v 24.566 h -23.32 c -14.37,0 -24.92,4.102 -31.86,12.102 -2.71,3.113 -7.36,13.547 -7.36,47.441 v 121.964 c 1.04,0 2.24,-0.16 3.29,-0.32 2.83,-0.1 5.86,-0.14 8.93,-0.14 6.5,0 14.24,0.3 23.37,0.62 l 149.45,-206.233 h 127.61 v 23.969 l -5.65,0.597 c -22.88,2.59 -41.72,8.25 -55.72,17.309"/>
			<path id="path26" style="fill:#ffffff;fill-opacity:1;fill-rule:nonzero;stroke:none" d="m 2449.67,1248.1 v -24.37 h 21.77 c 9.3,0 18.18,-2.44 26.62,-7.18 5.39,-3.06 9,-6.85 10.37,-10.75 1.79,-4.4 3.86,-15.08 3.86,-41.8 V 879.051 c 0,-32.668 -4.14,-43.063 -6.51,-46.106 -6.88,-9.113 -18.21,-13.371 -34.34,-13.371 h -21.77 v -24.582 h 200.47 v 24.582 h -22.01 c -9.22,0 -17.96,2.27 -26.15,6.805 -5.58,3.297 -9.1,6.777 -10.79,10.773 -1.56,4.504 -3.59,15.129 -3.59,41.899 V 1164 c 0,32.55 4.08,42.93 6.66,46.22 6.91,9.01 18.16,13.51 33.87,13.51 h 22.01 v 24.37 h -200.47"/>
			<path id="path28" style="fill:#ffffff;fill-opacity:1;fill-rule:nonzero;stroke:none" d="m 3293.36,1248.1 h -165.97 v -24.37 h 21.51 c 15.55,0 26.77,-3.92 33.5,-11.66 2.8,-3.22 7.55,-13.47 7.55,-46.87 V 929.109 L 2927.62,1248.1 h -128.77 v -24.37 h 6.33 c 12.12,0 21.13,-1.06 26.61,-2.83 11.96,-3.76 21.06,-8.13 27.32,-12.45 5.79,-4.22 14.75,-13.52 26.36,-27.29 V 878.023 c 0,-30.8 -3.79,-40.941 -6.03,-44.21 -6.56,-9.649 -17.89,-14.2 -34.92,-14.2 h -21.51 v -24.566 h 165.83 v 24.566 h -21.96 c -15.31,0 -26.58,3.926 -33.49,11.703 -2.66,2.981 -7.11,13.122 -7.11,46.707 v 253.897 l 283.64,-344.08 h 20.72 v 377.36 c 0,30.71 3.72,40.89 6.07,44.18 6.56,9.55 17.97,14.35 34.57,14.35 h 22.08 v 24.37"/>
			<path id="path30" style="fill:#ffffff;fill-opacity:1;fill-rule:nonzero;stroke:none" d="m 3597.8,1134.9 63.7,-155.431 h -131.17 z m 252.81,-315.287 c -16.36,0.961 -29.32,5.578 -38.16,13.332 -9.5,8.114 -20.29,26.555 -32.15,54.996 l -151.55,369.999 h -21.29 l -159.3,-365.553 c -13.16,-31.043 -24.95,-51.836 -35.36,-61.547 -2.55,-2.496 -9.92,-7.301 -32.48,-11.227 l -5.14,-1.011 v -23.555 h 150.89 v 24.141 l -5.88,0.425 c -24.69,1.961 -34.19,5.606 -37.9,8.637 -4.76,3.695 -7.16,7.953 -7.16,12.809 0,5.257 1.62,15.586 10.45,35.898 0,0 22.11,50.606 28.4,65.059 h 162.77 c 5.57,-13.629 24.39,-59.586 24.39,-59.586 8.35,-19.496 12.42,-33.844 12.42,-42.36 0,-5.242 -2.18,-9.23 -6.7,-13.129 -3.51,-2.777 -11.91,-6.5 -32.04,-7.328 l -6.01,-0.304 v -24.262 h 187.72 v 24.262 l -5.92,0.304"/>
			<path id="path32" style="fill:#ec1e27;fill-opacity:1;fill-rule:nonzero;stroke:none" d="M 20.0039,1360.28 V 685.461 H 695.094 V 1360.28 H 20.0039"/>
			<path id="path34" style="fill:#ffffff;fill-opacity:1;fill-rule:nonzero;stroke:none" d="M 670.867,709.48 H 44.2227 V 1336.3 H 670.867 V 709.48"/>
			<path id="path36" style="fill:#ec1e27;fill-opacity:1;fill-rule:nonzero;stroke:none" d="M 261.152,733.637 H 68.2891 V 926.375 H 261.152 V 733.637"/>
			<path id="path38" style="fill:#ec1e27;fill-opacity:1;fill-rule:nonzero;stroke:none" d="M 646.801,733.637 H 453.918 V 926.375 H 646.801 V 733.637"/>
			<path id="path40" style="fill:#ec1e27;fill-opacity:1;fill-rule:nonzero;stroke:none" d="M 453.918,926.375 H 261.152 V 1119.38 H 453.918 V 926.375"/>
			<path id="path42" style="fill:#ec1e27;fill-opacity:1;fill-rule:nonzero;stroke:none" d="M 261.152,1119.38 H 68.2891 v 192.76 H 261.152 v -192.76"/>
			<path
				xmlns="http://www.w3.org/2000/svg" id="path44" style="fill:#ec1e27;fill-opacity:1;fill-rule:nonzero;stroke:none" d="M 646.801,1119.38 H 453.918 v 192.76 h 192.883 v -192.76"/>
			</g>
		</g>
	</svg>